Info:
General
Complete name : Law.Abiding.Citizen.2009.DVDRip.XviD-Emery.avi
Format : AVI
Format/Info : Audio Video Interleave
File size : 710 MiB
Duration : 1h 48mn
Overall bit rate : 912 Kbps
Writing application : VirtualDubMod 1.5.10.2 (build 2540/release)
Writing library : VirtualDubMod build 2540/release

Video
ID : 0
Format : MPEG-4 Visual
Format profile : AdvancedSimple@L5
Format settings, BVOP : Yes
Format settings, QPel : No
Format settings, GMC : No warppoints
Format settings, Matrix : Default (H.263)
Muxing mode : Packed bitstream
Codec ID : XVID
Codec ID/Hint : XviD
Duration : 1h 48mn
Bit rate : 772 Kbps
Width : 640 pixels
Height : 272 pixels
Display aspect ratio : 2.35:1
Frame rate : 29.970 fps
Resolution : 24 bits
Colorimetry : 4:2:0
Scan type : Progressive
Bits/(Pixel*Frame) : 0.148
Stream size : 601 MiB (85%)
Writing library : XviD 1.2.1 (UTC 2008-12-04)

Audio
ID : 1
Format : MPEG Audio
Format version : Version 1
Format profile : Layer 3
Format settings, Mode : Joint stereo / MS Stereo
Codec ID : 55
Codec ID/Hint : MP3
Duration : 1h 48mn
Bit rate mode : Constant
Bit rate : 128 Kbps
Channel(s) : 2 channels
Sampling rate : 48.0 KHz
Resolution : 16 bits
Stream size : 99.6 MiB (14%)
Alignment : Aligned on interleaves
Interleave, duration : 33 ms (1.00 video frame)
Interleave, preload duration : 504 ms
 
http://uk.imdb.com/title/tt1197624/

User Rating:
7.3/10 17,865 votes

Director:
F. Gary Gray

Release Date:
16 October 2009 (USA)

Genre:
Crime | Drama | Thriller

Tagline:
The System Must Pay

Plot

A frustrated man decides to take justice into his own hands
after a plea bargain sets one of his family's killers free.
He targets not only the killer but also the district attorney
and others involved in the deal

Cast

Jamie Foxx ... Nick Rice
Gerard Butler ... Clyde Shelton
Colm Meaney ... Detective Dunnigan
Bruce McGill ... Jonas Cantrell
Leslie Bibb ... Sarah Lowell
Michael Irby ... Detective Garza
Gregory Itzin ... Warden Iger
Regina Hall ... Kelly Rice
Emerald-Angel Young... Denise Rice
Christian Stolte... Clarence Darby
Annie Corley ... Judge Laura Burch
Richard Portnow ... Bill Reynolds
Viola Davis ... Mayor
Michael Kelly ... Bray
Josh Stewart ... Rupert Ames
